<svg xmlns="http://www.w3.org/2000/svg" viewBox="0 0 100 100" width="100%" height="100%">
    <path d="M50 15c-5.5 0-10 4.5-10 10 0 1.9.5 3.6 1.4 5.1L30 40.7c-2.4-2.8-5.9-4.7-10-4.7-7.2 0-13 5.8-13 13 0 1.8.4 3.6 1.1 5.2l-4.4 7.6c-1.1-.7-2.4-1.1-3.7-1.1C0 60.7 0 75 0 75s10-2 10-7.2c0-1.8-.7-3.5-1.9-4.8l4.4-7.6c2.5 2.6 6 4.3 10 4.3 1.2 0 2.4-.2 3.5-.5l6.5 11.2c-2.2 2-3.5 4.9-3.5 8.1 0 6.1 4.9 11 11 11s11-4.9 11-11c0-2-.5-3.8-1.5-5.4l8.5-14.7 8.5 14.7c-1 1.6-1.5 3.4-1.5 5.4 0 6.1 4.9 11 11 11s11-4.9 11-11c0-3.2-1.3-6.1-3.5-8.1l6.5-11.2c1.1.3 2.3.5 3.5.5 4 0 7.5-1.7 10-4.3l4.4 7.6c-1.2 1.3-1.9 3-1.9 4.8 0 5.2 10 7.2 10 7.2s0-14.3-10-14.3c-1.3 0-2.6.4-3.7 1.1l-4.4-7.6c.7-1.6 1.1-3.4 1.1-5.2 0-7.2-5.8-13-13-13-4.1 0-7.6 1.9-10 4.7L58.6 30.1c.9-1.5 1.4-3.2 1.4-5.1 0-5.5-4.5-10-10-10zm0 14c-1.7 0-3 1.3-3 3s1.3 3 3 3 3-1.3 3-3-1.3-3-3-3z" fill="#000000"/>
</svg>
