<svg xmlns="http://www.w3.org/2000/svg" viewBox="0 0 512 512" width="100%" height="100%">
    <path d="M108.4 0h295.2c5.9 0 10.8 4.8 10.8 10.8v490.4c0 7.8-8.1 12.8-15 9.1L256 439.4l-143.4 70.9c-6.9 3.7-15-1.3-15-9.1V10.8c0-6 4.9-10.8 10.8-10.8z" fill="#1572B6"/>
    <path d="M256 36.8v371.3l116 57.3V36.8H256z" fill="#33A9DC"/>
    <path d="M139.6 112h232.8l-10.8 120H256v48h54.8l-5.6 62.4-49.2 24.3v49.9l99.2-49 16.4-183.6H256V112zm0 0H256v52h-64.4l4.5 50.4h59.9v48H187.3l-4.4-49.6h-33.8l8.5 95.6 98.4 48.7v-49.9l-49.2-24.3-3.1-34.9h52.3v-48h-56.8l-4.5-50.4H139.6z" fill="#FFFFFF"/>
</svg>
