<svg xmlns="http://www.w3.org/2000/svg" viewBox="0 0 38 57" width="100%" height="100%">
    <path d="M9.5 0C4.253 0 0 4.253 0 9.5s4.253 9.5 9.5 9.5h9.5V0H9.5z" fill="#F24E1E"/>
    <path d="M9.5 19C4.253 19 0 23.253 0 28.5S4.253 38 9.5 38H19V19H9.5z" fill="#A259FF"/>
    <path d="M9.5 38c-5.247 0-9.5 4.253-9.5 9.5S4.253 57 9.5 57h9.5V38H9.5z" fill="#1ABCFE"/>
    <path d="M28.5 19c-5.247 0-9.5 4.253-9.5 9.5S23.253 38 28.5 38s9.5-4.253 9.5-9.5-4.253-9.5-9.5-9.5z" fill="#0ACF83"/>
    <path d="M28.5 0C23.253 0 19 4.253 19 9.5S23.253 19 28.5 19s9.5-4.253 9.5-9.5S33.747 0 28.5 0z" fill="#FF7262"/>
</svg>
