<svg xmlns="http://www.w3.org/2000/svg" viewBox="0 0 97 97" width="100%" height="100%">
    <path d="M92.9 44.4L52.6 4.1C50.2 1.7 46.8.5 43.4.5s-6.8 1.2-9.2 3.6L4.1 34.2c-4.9 4.9-4.9 13.5 0 18.4l40.3 40.3c2.4 2.4 5.8 3.6 9.2 3.6s6.8-1.2 9.2-3.6l30.1-30.1c4.9-4.9 4.9-13.5 0-18.4z" fill="#F05032"/>
    <path d="M57.9 46.9c-2.3-1.4-5.2-1.3-7.3.3l-10.9-10.9V26c2.4-.9 4.1-3.2 4.1-5.9 0-3.5-2.9-6.4-6.4-6.4s-6.4 2.9-6.4 6.4c0 2.7 1.7 5 4.1 5.9v21.5c-2.4.9-4.1 3.2-4.1 5.9 0 3.5 2.9 6.4 6.4 6.4 2.7 0 5-1.7 5.9-4.1h9.3c.7 2.1 2.5 3.7 4.8 4.1v7.6c-2.4.9-4.1 3.2-4.1 5.9 0 3.5 2.9 6.4 6.4 6.4s6.4-2.9 6.4-6.4c0-2.7-1.7-5-4.1-5.9V52.8c2.4-.8 4.1-3.1 4.1-5.9 0-.1 0-.1 0 0zM37.3 20.1c0-1.7 1.4-3.1 3.1-3.1s3.1 1.4 3.1 3.1-1.4 3.1-3.1 3.1-3.1-1.4-3.1-3.1zm3.1 39.5c-1.7 0-3.1-1.4-3.1-3.1s1.4-3.1 3.1-3.1 3.1 1.4 3.1 3.1-1.4 3.1-3.1 3.1zm17.5 17.5c-1.7 0-3.1-1.4-3.1-3.1s1.4-3.1 3.1-3.1 3.1 1.4 3.1 3.1-1.4 3.1-3.1 3.1zm0-23.7c-1.7 0-3.1-1.4-3.1-3.1s1.4-3.1 3.1-3.1 3.1 1.4 3.1 3.1-1.4 3.1-3.1 3.1z" fill="#FFFFFF"/>
</svg>
