<svg xmlns="http://www.w3.org/2000/svg" viewBox="0 0 630 630" width="100%" height="100%">
    <rect width="630" height="630" fill="#F7DF1E"/>
    <path d="M375.4 496.2c11.7 20.8 28.5 35 52.8 35 24.3 0 39.7-12.2 39.7-29.2 0-20.3-16.2-27.5-43.7-39.2l-15-6.4c-43.2-18.4-72-41.9-72-91.8 0-46.7 36.7-82.6 89.2-82.6 42.4 0 71.5 17.5 86.4 48.3l-39.3 25.2c-9.8-18.8-24.3-25.2-45.7-25.2-20.5 0-33.8 10.7-33.8 26.5 0 17.1 10.7 23.9 35.5 34.2l15 6.4c49.2 21 80.8 44.5 80.8 95.8 0 54.7-41.9 88.5-98.8 88.5-57.7 0-92.8-27.8-106.8-59.4l41.9-25.2zm-181.7-8.1c8.1 14.5 19.2 24.8 37.2 24.8 18 0 28.6-8.5 28.6-40.2V291.6h47.4v180.3c0 59.4-34.6 86.8-76.5 86.8-44.5 0-69.2-22.7-81.6-49.2l44.9-21.4z" fill="#000000"/>
</svg>
