<svg xmlns="http://www.w3.org/2000/svg" viewBox="0 0 100 100" width="100%" height="100%">
    <path d="M50 10c-22.1 0-40 8.1-40 18v16c0 9.9 17.9 18 40 18s40-8.1 40-18V28c0-9.9-17.9-18-40-18zm0 50c-22.1 0-40 8.1-40 18v12c0 9.9 17.9 18 40 18s40-8.1 40-18V78c0-9.9-17.9-18-40-18zm0-32c-19.3 0-35-6.7-35-10s15.7-10 35-10 35 6.7 35 10-15.7 10-35 10zm-35 28c1.3 3 7.8 6.7 17.5 8.7V57c-10.2-2.1-16.7-5.5-17.5-8.5v6.5zm70 0c-.8 3-7.3 6.4-17.5 8.5v-7.8c9.7-2 16.2-5.7 17.5-8.7v8zm-35 30c-19.3 0-35-6.7-35-10s15.7-10 35-10 35 6.7 35 10-15.7 10-35 10zm-35 10c1.3 3 7.8 6.7 17.5 8.7v-7.8c-10.2-2.1-16.7-5.5-17.5-8.5V96zm70 0c-.8 3-7.3 6.4-17.5 8.5v-7.8c9.7-2 16.2-5.7 17.5-8.7V96z" fill="#00758F"/>
</svg>
