<svg xmlns="http://www.w3.org/2000/svg" viewBox="0 0 100 100" width="100%" height="100%">
    <path d="M89.7 45.4C83.5 32 65.2 25 65.2 25s4.9 7.4 3 13.1c-1.9 5.7-8.3 11-13.9 14.3-5.6 3.3-13.9 6.2-19.6 1.8-5.7-4.4-6.3-12-6.3-12s-3.7 8-1 16.8c2.7 8.8 8.6 16.5 16.9 20.9 8.3 4.4 19.3 5 28.8 2 9.5-3 16.5-10.7 20-20.2 3.5-9.6 2.9-20.9-3.4-26.3z" fill="#FA7343"/>
    <path d="M80.5 40.5c-4.9-7-14.8-11.8-24.3-13.2 0 0 4.2 4.2 4.2 8.4 0 4.2-4.9 9.1-9.8 12-4.9 2.9-11.9 4.9-15.4.7-3.5-4.2-2.1-9.8-2.1-9.8s-3.5 5.6-2.1 12.6c1.4 7 7.7 13.3 14 16.1 6.3 2.8 14.7 2.1 21.7-.7 7-2.8 11.9-8.4 14.7-14.7 2.8-6.3 2.1-11.9-.9-11.4z" fill="#F05138"/>
</svg>
